<svg width="26" height="26" viewBox="0 0 26 26" fill="none" xmlns="http://www.w3.org/2000/svg">
<path d="M13 1C6.37258 1 1 6.37258 1 13C1 19.6274 6.37258 25 13 25C19.6274 25 25 19.6274 25 13C25 6.37258 19.6274 1 13 1Z" stroke="black" stroke-linecap="round" stroke-linejoin="round"/>
<path d="M3.72522 20.6148C3.72522 20.6148 6.40004 17.2 13 17.2C19.6 17.2 22.2749 20.6148 22.2749 20.6148" stroke="black" stroke-linecap="round" stroke-linejoin="round"/>
<path d="M13 13C14.9883 13 16.6 11.3883 16.6 9.40005C16.6 7.41183 14.9883 5.80005 13 5.80005C11.0117 5.80005 9.40002 7.41183 9.40002 9.40005C9.40002 11.3883 11.0117 13 13 13Z" stroke="black" stroke-linecap="round" stroke-linejoin="round"/>
</svg>
