<svg width="36" height="26" viewBox="0 0 36 26" fill="none" xmlns="http://www.w3.org/2000/svg">
<path d="M1 24.9999V23.5882C1 18.1303 5.91469 13.7058 11.9773 13.7058C18.0398 13.7058 22.9545 18.1303 22.9545 23.5882V24.9999" stroke="#ED7D2D" stroke-linecap="round"/>
<path d="M19.8181 16.5294C19.8181 12.631 23.3286 9.47058 27.659 9.47058C31.9894 9.47058 35.4999 12.631 35.4999 16.5294V17.2353" stroke="#ED7D2D" stroke-linecap="round"/>
<path d="M11.9772 13.7059C15.4415 13.7059 18.2499 11.1775 18.2499 8.05881C18.2499 4.94002 15.4415 2.41174 11.9772 2.41174C8.51286 2.41174 5.70447 4.94002 5.70447 8.05881C5.70447 11.1775 8.51286 13.7059 11.9772 13.7059Z" stroke="#ED7D2D" stroke-linecap="round" stroke-linejoin="round"/>
<path d="M27.6593 9.47059C30.2576 9.47059 32.3638 7.57438 32.3638 5.2353C32.3638 2.89621 30.2576 1 27.6593 1C25.0609 1 22.9547 2.89621 22.9547 5.2353C22.9547 7.57438 25.0609 9.47059 27.6593 9.47059Z" stroke="#ED7D2D" stroke-linecap="round" stroke-linejoin="round"/>
</svg>
