<svg width="10" height="18" viewBox="0 0 10 18" fill="none" xmlns="http://www.w3.org/2000/svg">
<path d="M9.53063 15.9694C9.60031 16.039 9.65559 16.1218 9.6933 16.2128C9.73101 16.3039 9.75042 16.4014 9.75042 16.5C9.75042 16.5985 9.73101 16.6961 9.6933 16.7872C9.65559 16.8782 9.60031 16.9609 9.53063 17.0306C9.46095 17.1003 9.37822 17.1556 9.28718 17.1933C9.19613 17.231 9.09855 17.2504 9 17.2504C8.90146 17.2504 8.80387 17.231 8.71283 17.1933C8.62179 17.1556 8.53906 17.1003 8.46938 17.0306L0.969377 9.53061C0.899645 9.46096 0.844326 9.37824 0.806583 9.2872C0.76884 9.19615 0.749413 9.09855 0.749413 8.99999C0.749413 8.90143 0.76884 8.80383 0.806583 8.71278C0.844326 8.62174 0.899645 8.53902 0.969377 8.46936L8.46938 0.969365C8.61011 0.828634 8.80098 0.749573 9 0.749573C9.19903 0.749573 9.3899 0.828634 9.53063 0.969365C9.67136 1.1101 9.75042 1.30097 9.75042 1.49999C9.75042 1.69901 9.67136 1.88988 9.53063 2.03061L2.56031 8.99999L9.53063 15.9694Z" fill="#ED7D2D"/>
</svg>
